<svg xmlns="http://www.w3.org/2000/svg" viewBox="0 0 192 192" fill="none">
  <defs>
    <linearGradient id="g1" x1="24" y1="20" x2="168" y2="172" gradientUnits="userSpaceOnUse">
      <stop stop-color="#38bdf8"/>
      <stop offset="0.52" stop-color="#f59e0b"/>
      <stop offset="1" stop-color="#fb7185"/>
    </linearGradient>
    <filter id="blur" x="0" y="0" width="192" height="192" filterUnits="userSpaceOnUse">
      <feGaussianBlur stdDeviation="10" />
    </filter>
  </defs>
  <rect width="192" height="192" rx="44" fill="#09111f"/>
  <circle cx="96" cy="96" r="58" fill="url(#g1)" filter="url(#blur)" opacity="0.45"/>
  <path d="M55 70c0-6.627 5.373-12 12-12h58c6.627 0 12 5.373 12 12v52c0 6.627-5.373 12-12 12H67c-6.627 0-12-5.373-12-12V70Z" fill="url(#g1)" opacity="0.95"/>
  <path d="M74 92h44c4.418 0 8 3.582 8 8s-3.582 8-8 8H74c-4.418 0-8-3.582-8-8s3.582-8 8-8Zm0-20h32c4.418 0 8 3.582 8 8s-3.582 8-8 8H74c-4.418 0-8-3.582-8-8s3.582-8 8-8Z" fill="#fff" opacity="0.95"/>
</svg>